<svg xmlns="http://www.w3.org/2000/svg" xmlns:xlink="http://www.w3.org/1999/xlink" version="1.1" width="256" height="256" viewBox="0 0 256 256" xml:space="preserve">

<defs>
</defs>
<g style="stroke: none; stroke-width: 0; stroke-dasharray: none; stroke-linecap: butt; stroke-linejoin: miter; stroke-miterlimit: 10; fill: none; fill-rule: nonzero; opacity: 1;" transform="translate(1.4065934065934016 1.4065934065934016) scale(2.81 2.81)" >
	<path d="M 46.939 61.172 L 46.939 61.172 l -3.879 0 v 0 h -2 V 89 c 0 0.553 0.448 1 1 1 h 5.879 c 0.553 0 1 -0.447 1 -1 V 61.172 H 46.939 z" style="stroke: none; stroke-width: 1; stroke-dasharray: none; stroke-linecap: butt; stroke-linejoin: miter; stroke-miterlimit: 10; fill: rgb(160,126,99); fill-rule: nonzero; opacity: 1;" transform=" matrix(1 0 0 1 0 0) " stroke-linecap="round" />
	<path d="M 154.09 150 l -0.084 -0.731 h -0.036 c -0.323 0.456 -0.947 0.863 -1.775 0.863 c -1.175 0 -1.774 -0.827 -1.774 -1.667 c 0 -1.403 1.247 -2.171 3.49 -2.158 v -0.121 c 0 -0.479 -0.132 -1.343 -1.319 -1.343 c -0.54 0 -1.104 0.168 -1.512 0.432 l -0.239 -0.695 c 0.479 -0.312 1.175 -0.516 1.906 -0.516 c 1.775 0 2.207 1.211 2.207 2.374 v 2.172 c 0 0.503 0.024 0.994 0.096 1.391 H 154.09 z M 153.934 147.037 c -1.151 -0.023 -2.458 0.181 -2.458 1.308 c 0 0.684 0.455 1.008 0.995 1.008 c 0.756 0 1.235 -0.479 1.403 -0.972 c 0.036 -0.107 0.06 -0.229 0.06 -0.336 V 147.037 z" style="stroke: none; stroke-width: 1; stroke-dasharray: none; stroke-linecap: butt; stroke-linejoin: miter; stroke-miterlimit: 10; fill: rgb(0,0,0); fill-rule: nonzero; opacity: 1;" transform=" matrix(1 0 0 1 0 0) " stroke-linecap="round" />
	<path d="M 161.505 146.018 c 0 2.651 -0.983 4.114 -2.71 4.114 c -1.523 0 -2.555 -1.427 -2.579 -4.006 c 0 -2.614 1.128 -4.054 2.711 -4.054 C 160.569 142.072 161.505 143.535 161.505 146.018 z M 157.271 146.139 c 0 2.026 0.623 3.178 1.583 3.178 c 1.079 0 1.595 -1.26 1.595 -3.25 c 0 -1.919 -0.491 -3.179 -1.583 -3.179 C 157.943 142.888 157.271 144.016 157.271 146.139 z" style="stroke: none; stroke-width: 1; stroke-dasharray: none; stroke-linecap: butt; stroke-linejoin: miter; stroke-miterlimit: 10; fill: rgb(0,0,0); fill-rule: nonzero; opacity: 1;" transform=" matrix(1 0 0 1 0 0) " stroke-linecap="round" />
	<path d="M 167.54 142.204 v 0.696 l -3.394 7.1 h -1.092 l 3.382 -6.896 v -0.023 h -3.813 v -0.876 H 167.54 z" style="stroke: none; stroke-width: 1; stroke-dasharray: none; stroke-linecap: butt; stroke-linejoin: miter; stroke-miterlimit: 10; fill: rgb(0,0,0); fill-rule: nonzero; opacity: 1;" transform=" matrix(1 0 0 1 0 0) " stroke-linecap="round" />
	<path d="M 169.559 147.289 c 0.024 1.428 0.936 2.016 1.991 2.016 c 0.756 0 1.211 -0.133 1.607 -0.301 l 0.18 0.756 c -0.372 0.168 -1.008 0.36 -1.931 0.36 c -1.787 0 -2.854 -1.176 -2.854 -2.927 s 1.031 -3.13 2.723 -3.13 c 1.895 0 2.398 1.667 2.398 2.734 c 0 0.216 -0.024 0.384 -0.036 0.491 H 169.559 z M 172.653 146.533 c 0.012 -0.671 -0.276 -1.715 -1.463 -1.715 c -1.067 0 -1.535 0.984 -1.619 1.715 H 172.653 z" style="stroke: none; stroke-width: 1; stroke-dasharray: none; stroke-linecap: butt; stroke-linejoin: miter; stroke-miterlimit: 10; fill: rgb(0,0,0); fill-rule: nonzero; opacity: 1;" transform=" matrix(1 0 0 1 0 0) " stroke-linecap="round" />
	<path d="M 179.097 142.947 c -0.216 -0.012 -0.492 0 -0.792 0.049 c -1.654 0.275 -2.53 1.486 -2.71 2.77 h 0.036 c 0.371 -0.491 1.02 -0.898 1.883 -0.898 c 1.379 0 2.351 0.995 2.351 2.518 c 0 1.428 -0.972 2.747 -2.591 2.747 c -1.667 0 -2.758 -1.296 -2.758 -3.322 c 0 -1.535 0.551 -2.746 1.318 -3.514 c 0.648 -0.636 1.512 -1.032 2.495 -1.151 c 0.312 -0.049 0.575 -0.061 0.768 -0.061 V 142.947 z M 178.797 147.445 c 0 -1.115 -0.636 -1.787 -1.607 -1.787 c -0.636 0 -1.223 0.396 -1.511 0.959 c -0.072 0.121 -0.12 0.276 -0.12 0.469 c 0.024 1.283 0.611 2.23 1.715 2.23 C 178.186 149.316 178.797 148.561 178.797 147.445 z" style="stroke: none; stroke-width: 1; stroke-dasharray: none; stroke-linecap: butt; stroke-linejoin: miter; stroke-miterlimit: 10; fill: rgb(0,0,0); fill-rule: nonzero; opacity: 1;" transform=" matrix(1 0 0 1 0 0) " stroke-linecap="round" />
	<path d="M 181.056 148.789 c 0.3 0.191 0.995 0.491 1.727 0.491 c 1.355 0 1.775 -0.863 1.763 -1.511 c -0.012 -1.092 -0.995 -1.56 -2.015 -1.56 h -0.588 v -0.792 h 0.588 c 0.768 0 1.739 -0.395 1.739 -1.318 c 0 -0.624 -0.396 -1.176 -1.367 -1.176 c -0.624 0 -1.224 0.275 -1.56 0.516 l -0.275 -0.768 c 0.407 -0.3 1.199 -0.6 2.039 -0.6 c 1.535 0 2.23 0.912 2.23 1.859 c 0 0.803 -0.479 1.486 -1.439 1.834 v 0.025 c 0.96 0.191 1.739 0.91 1.739 2.002 c 0 1.248 -0.972 2.339 -2.843 2.339 c -0.875 0 -1.643 -0.276 -2.026 -0.528 L 181.056 148.789 z" style="stroke: none; stroke-width: 1; stroke-dasharray: none; stroke-linecap: butt; stroke-linejoin: miter; stroke-miterlimit: 10; fill: rgb(0,0,0); fill-rule: nonzero; opacity: 1;" transform=" matrix(1 0 0 1 0 0) " stroke-linecap="round" />
	<path d="M 74.427 60.593 l -11.032 -15.53 h 4.028 h 1 c 0.374 0 0.717 -0.209 0.889 -0.542 c 0.172 -0.332 0.144 -0.732 -0.073 -1.038 L 58.41 28.241 h 4.232 h 1 c 0.374 0 0.717 -0.209 0.889 -0.542 c 0.172 -0.332 0.144 -0.732 -0.073 -1.038 L 45.815 0.421 C 45.627 0.157 45.314 0.025 45 0.025 c -0.134 0 -0.265 0.127 -0.351 0.359 l -0.104 -0.145 l -9.42 26.423 c -0.099 0.305 -0.112 0.706 -0.033 1.038 c 0.078 0.333 0.235 0.542 0.405 0.542 h 1 h 1.387 l -4.939 15.243 c -0.099 0.305 -0.112 0.706 -0.033 1.038 c 0.078 0.333 0.235 0.542 0.405 0.542 h 1 h 1.293 l -5.032 15.53 c -0.099 0.305 -0.112 0.705 -0.033 1.038 c 0.078 0.332 0.235 0.541 0.405 0.541 h 1 h 40.661 h 1 c 0.374 0 0.717 -0.209 0.889 -0.541 C 74.672 61.298 74.644 60.897 74.427 60.593 z" style="stroke: none; stroke-width: 1; stroke-dasharray: none; stroke-linecap: butt; stroke-linejoin: miter; stroke-miterlimit: 10; fill: rgb(127,178,65); fill-rule: nonzero; opacity: 1;" transform=" matrix(1 0 0 1 0 0) " stroke-linecap="round" />
	<path d="M 31.545 61.631 c -0.078 -0.333 -0.065 -0.733 0.033 -1.038 l 5.032 -15.53 h -2.293 c -0.171 0 -0.327 -0.209 -0.405 -0.542 c -0.078 -0.332 -0.065 -0.732 0.033 -1.038 l 4.939 -15.243 h -2.387 c -0.171 0 -0.327 -0.209 -0.405 -0.542 c -0.078 -0.332 -0.065 -0.732 0.033 -1.038 l 8.503 -26.241 C 44.714 0.157 44.857 0.025 45 0.025 c -0.314 0 -0.628 0.132 -0.815 0.396 L 25.542 26.662 c -0.216 0.305 -0.245 0.706 -0.073 1.038 c 0.172 0.333 0.515 0.542 0.889 0.542 h 5.233 L 20.762 43.484 c -0.216 0.305 -0.245 0.706 -0.073 1.038 c 0.172 0.333 0.515 0.542 0.889 0.542 h 5.028 l -11.033 15.53 c -0.216 0.305 -0.245 0.705 -0.073 1.038 c 0.172 0.332 0.515 0.541 0.889 0.541 H 31.95 C 31.78 62.172 31.623 61.963 31.545 61.631 z" style="stroke: none; stroke-width: 1; stroke-dasharray: none; stroke-linecap: butt; stroke-linejoin: miter; stroke-miterlimit: 10; fill: rgb(113,156,64); fill-rule: nonzero; opacity: 1;" transform=" matrix(1 0 0 1 0 0) " stroke-linecap="round" />
</g>
</svg>